<svg width="30" height="268" viewBox="0 0 30 268" fill="none" xmlns="http://www.w3.org/2000/svg">
<path d="M29 267.56V257.296C29 250.582 25.7265 247.808 21.4543 247.808C16.9602 247.808 14.5189 250.915 14.3525 253.523H14.0751C13.4093 251.082 11.8003 248.918 8.13841 248.918C3.97719 248.918 0.592725 251.692 0.592725 257.629V267.56H29ZM25.9484 264.12H16.0725V257.129C16.0725 253.412 18.5692 251.082 21.4543 251.082C23.9511 251.082 25.9484 252.802 25.9484 257.296V264.12ZM13.0764 264.12H3.64429V257.629C3.64429 253.856 5.64167 252.191 8.13841 252.191C11.1345 252.191 13.0764 254.633 13.0764 257.74V264.12ZM29 240.991L20.955 238.133V226.648L29 223.791V220.185L0.592725 230.615V234.166L29 244.597V240.991ZM17.9034 237.051L5.08684 232.502V232.28L17.9034 227.73V237.051ZM9.47 194.236C3.64429 195.29 0.204345 199.951 0.204345 205.665C0.204345 212.934 5.80812 218.204 14.7964 218.204C23.7846 218.204 29.3884 212.934 29.3884 205.665C29.3884 199.951 25.9484 195.29 20.1227 194.236V197.676C24.062 198.508 26.1704 201.893 26.1704 205.665C26.1704 210.825 22.1756 214.876 14.7964 214.876C7.41713 214.876 3.42236 210.825 3.42236 205.665C3.42236 201.893 5.53071 198.508 9.47 197.676V194.236ZM29 188.677V185.237H19.7898L15.7951 181.686L29 171.81V167.649L13.4093 179.578L0.592725 167.649L0.592725 172.143L14.6854 184.904V185.237H0.592725V188.677H29ZM9.47 145.113V141.562C3.97719 142.616 0.204345 147.221 0.204345 153.213C0.204345 160.495 5.80812 165.641 14.7964 165.641C23.7846 165.641 29.3884 160.537 29.3884 152.991C29.3884 146.222 24.8804 141.395 17.8479 141.395H14.7964V152.214H17.8479V144.724C22.9524 144.821 26.1704 148.178 26.1704 152.991C26.1704 158.262 22.1756 162.312 14.7964 162.312C7.41713 162.312 3.42236 158.262 3.42236 153.213C3.42236 149.107 5.73877 146.319 9.47 145.113ZM29 135.504V132.064H17.9034L17.9034 125.85C17.9034 125.6 17.9034 125.364 17.8895 125.128L29 119.136V115.141L17.2654 121.564C16.0309 117.943 13.0764 116.251 9.30355 116.251C4.28234 116.251 0.592725 119.247 0.592725 125.905V135.504H29ZM14.7964 132.064H3.64429V126.016C3.64429 121.411 5.89135 119.636 9.30355 119.636C12.7158 119.636 14.7964 121.411 14.7964 125.961V132.064ZM14.7964 86.5504C5.80812 86.5504 0.204345 91.8213 0.204345 99.0895C0.204345 106.358 5.80812 111.629 14.7964 111.629C23.7846 111.629 29.3884 106.358 29.3884 99.0895C29.3884 91.8213 23.7846 86.5504 14.7964 86.5504ZM14.7964 89.8793C22.1756 89.8793 26.1704 93.9296 26.1704 99.0895C26.1704 104.249 22.1756 108.3 14.7964 108.3C7.41713 108.3 3.42236 104.249 3.42236 99.0895C3.42236 93.9296 7.41713 89.8793 14.7964 89.8793ZM0.592725 62.124H19.124C23.2853 62.124 26.2813 64.9814 26.2813 69.7252C26.2813 74.469 23.2853 77.3263 19.124 77.3263H0.592725V80.7663H19.4014C25.2272 80.7663 29.4993 76.4109 29.4993 69.7252C29.4993 63.0395 25.2272 58.6841 19.4014 58.6841H0.592725V62.124ZM0.592725 29.2885V32.673H22.9524V32.9504L0.592725 48.4856V51.8146H29V48.3746H6.69585V48.0972L29 32.6175V29.2885H0.592725ZM29 13.6388C29 4.9835 23.6182 0.101 14.7409 0.101C5.91909 0.101 0.592725 4.9835 0.592725 13.2505V22.4051H29V13.6388ZM25.9484 18.9652H3.64429V13.4724C3.64429 6.81444 7.86099 3.42998 14.7409 3.42998C21.6762 3.42998 25.9484 6.81444 25.9484 13.8608V18.9652Z" fill="black"/>
</svg>
